<?xml version="1.0" encoding="UTF-8" standalone="no"?>
<!DOCTYPE svg PUBLIC "-//W3C//DTD SVG 1.1//EN" "http://www.w3.org/Graphics/SVG/1.1/DTD/svg11.dtd">
<svg xmlns="http://www.w3.org/2000/svg" version="1.1" viewBox="0.00 0.00 512.00 512.00">
<g strokeWidth="2.50" fill="none" strokeLinecap="butt">
<path stroke="#f1daa6" vector-effect="non-scaling-stroke" d="
  M 199.22 99.71
  L 46.97 99.99
  A 0.41 0.40 -90.0 0 0 46.57 100.40
  L 46.57 142.52"
/>
<path stroke="#f9cc5d" vector-effect="non-scaling-stroke" d="
  M 46.57 142.52
  L 0.00 142.40"
/>
<path stroke="#f4e2ab" vector-effect="non-scaling-stroke" d="
  M 46.57 142.52
  Q 171.54 142.54 296.58 142.50
  Q 307.95 142.49 312.22 140.92
  Q 320.58 137.84 324.79 129.04
  Q 327.63 123.12 338.11 100.00"
/>
</g>
<path fill="#f6c358" d="
  M 199.22 99.71
  L 46.97 99.99
  A 0.41 0.40 -90.0 0 0 46.57 100.40
  L 46.57 142.52
  L 0.00 142.40
  L 0.00 136.76
  Q 0.31 132.34 0.51 127.93
  C 1.34 109.11 4.96 90.15 10.67 71.88
  Q 14.26 60.40 24.50 56.60
  Q 28.52 55.11 37.36 55.14
  Q 95.48 55.34 150.67 55.13
  Q 158.13 55.10 162.10 56.56
  Q 168.82 59.04 173.75 65.81
  Q 184.94 81.19 197.30 97.94
  Q 197.69 98.48 199.22 99.71
  Z"
/>
<path fill="#fcd462" d="
  M 512.00 91.38
  L 512.00 428.24
  Q 510.94 440.67 502.53 448.61
  C 497.00 453.83 489.63 456.78 481.97 456.78
  Q 253.26 456.80 30.86 456.78
  Q 17.51 456.78 8.76 447.99
  Q 0.87 440.06 0.00 428.12
  L 0.00 142.40
  L 46.57 142.52
  Q 171.54 142.54 296.58 142.50
  Q 307.95 142.49 312.22 140.92
  Q 320.58 137.84 324.79 129.04
  Q 327.63 123.12 338.11 100.00
  Q 341.79 91.99 345.71 83.83
  Q 350.04 74.81 358.43 71.71
  Q 362.94 70.04 371.02 70.06
  Q 432.67 70.20 488.60 70.11
  Q 495.97 70.09 502.03 73.94
  Q 510.86 79.54 512.00 91.38
  Z"
/>
<path fill="#ebf0f3" d="
  M 199.22 99.71
  L 338.11 100.00
  Q 327.63 123.12 324.79 129.04
  Q 320.58 137.84 312.22 140.92
  Q 307.95 142.49 296.58 142.50
  Q 171.54 142.54 46.57 142.52
  L 46.57 100.40
  A 0.41 0.40 90.0 0 1 46.97 99.99
  L 199.22 99.71
  Z"
/>
</svg>
